<?xml version="1.0" standalone="no"?>
<!DOCTYPE svg PUBLIC "-//W3C//DTD SVG 20010904//EN"
 "http://www.w3.org/TR/2001/REC-SVG-20010904/DTD/svg10.dtd">
<svg version="1.0" xmlns="http://www.w3.org/2000/svg"
 width="2400.000000pt" height="2400.000000pt" viewBox="0 0 2400.000000 2400.000000"
 preserveAspectRatio="xMidYMid meet">
<metadata>
Created by potrace 1.16, written by Peter Selinger 2001-2019
</metadata>
<g transform="translate(0.000000,2400.000000) scale(0.100000,-0.100000)"
fill="#000000" stroke="none">
<path d="M0 12000 l0 -12000 12000 0 12000 0 0 12000 0 12000 -12000 0 -12000
0 0 -12000z m20390 6595 l0 -1795 -145 0 -145 0 -2 1648 -3 1647 -8100 0
-8100 0 -3 -1647 -2 -1648 -145 0 -145 0 0 1795 0 1795 8395 0 8395 0 0 -1795z
m-5645 -2032 c11 -6 36 -18 55 -27 42 -18 121 -97 145 -146 46 -91 45 10 45
-2607 l0 -2473 -2995 0 -2995 0 0 2482 c0 1830 3 2491 11 2517 33 104 105 195
177 227 21 9 46 20 57 25 11 4 34 10 50 12 17 2 1245 4 2730 3 2036 -1 2705
-4 2720 -13z m-8324 -7154 c200 -66 309 -256 309 -537 0 -179 -37 -273 -129
-329 -69 -43 -171 -20 -201 44 -14 30 -40 45 -40 24 0 -22 -61 -71 -103 -83
-91 -24 -176 29 -207 129 -19 60 -20 277 -2 295 7 7 12 18 12 26 0 27 61 102
104 127 60 35 112 34 156 -5 42 -35 50 -37 50 -10 0 18 7 20 70 20 l70 0 0
-239 c0 -196 3 -241 15 -251 23 -19 46 -8 71 38 22 39 24 54 24 177 0 230 -48
355 -165 434 -131 89 -313 60 -410 -65 -70 -90 -95 -190 -95 -379 0 -189 25
-289 95 -379 105 -134 296 -155 443 -48 18 13 34 22 36 21 1 -2 13 -19 26 -38
l24 -34 -46 -41 c-57 -52 -122 -76 -224 -83 -67 -5 -93 -2 -150 16 -37 13 -82
32 -99 44 -90 63 -155 166 -191 302 -15 55 -19 106 -19 240 0 134 4 185 19
240 36 136 101 239 191 302 88 62 249 80 366 42z m4349 -54 l0 -75 -104 0
c-59 0 -108 -4 -111 -10 -3 -5 -13 -10 -21 -10 -16 0 -52 -34 -71 -68 -7 -12
-13 -44 -13 -72 l0 -50 160 0 160 0 0 -75 0 -75 -160 0 -160 0 0 -265 0 -265
95 0 95 0 0 -75 0 -75 -280 0 -280 0 0 75 0 74 93 3 92 3 0 260 0 260 -92 3
-93 3 0 74 0 74 93 3 92 3 11 60 c17 98 36 138 89 190 74 72 164 102 313 104
l92 1 0 -75z m-2180 -55 l0 -110 -105 0 -105 0 0 110 0 110 105 0 105 0 0
-110z m-1108 -234 c48 -13 142 -51 157 -63 6 -5 -51 -116 -64 -125 -5 -4 -20
-1 -32 7 -42 28 -137 49 -237 53 -84 3 -106 0 -153 -19 -56 -23 -79 -53 -68
-89 10 -30 93 -61 215 -81 54 -8 127 -22 185 -34 83 -18 185 -88 185 -126 0
-10 5 -21 10 -24 19 -12 12 -135 -11 -182 -86 -178 -443 -217 -741 -80 -26 12
-48 27 -48 33 0 11 55 123 66 133 2 2 34 -11 71 -29 118 -57 133 -61 253 -67
122 -7 194 11 227 54 25 33 26 36 11 61 -20 33 -108 64 -228 82 -179 26 -264
57 -319 114 -84 87 -80 207 9 297 46 46 134 89 183 89 12 0 29 5 37 11 21 14
223 5 292 -15z m1983 10 c65 -15 155 -69 198 -116 74 -82 114 -179 124 -302
l5 -58 -351 0 -351 0 0 -31 c0 -57 92 -164 152 -176 15 -3 31 -10 34 -14 8
-13 137 -11 192 3 26 6 59 19 74 30 14 10 30 18 34 18 4 0 18 9 30 21 19 17
23 18 35 6 26 -28 49 -57 49 -64 0 -3 7 -14 16 -24 15 -17 14 -20 -12 -43 -78
-69 -234 -113 -365 -104 -179 13 -310 93 -378 233 -72 146 -65 297 20 445 42
74 178 170 242 170 12 0 29 5 37 10 16 11 163 8 215 -4z m2040 0 c65 -15 155
-69 198 -116 74 -82 114 -179 124 -302 l5 -58 -351 0 -351 0 0 -31 c0 -57 92
-164 152 -176 15 -3 31 -10 34 -14 8 -13 137 -11 192 3 26 6 59 19 74 30 14
10 30 18 34 18 4 0 18 9 30 21 19 17 23 18 35 6 26 -28 49 -57 49 -64 0 -3 7
-14 16 -24 15 -17 14 -20 -12 -43 -78 -69 -234 -113 -365 -104 -179 13 -310
93 -378 233 -72 146 -65 297 20 445 42 74 178 170 242 170 12 0 29 5 37 10 16
11 163 8 215 -4z m1294 2 c27 -6 53 -18 56 -26 4 -12 -10 -56 -36 -104 -5 -10
-9 -25 -9 -33 0 -17 -55 -21 -65 -5 -8 14 -157 13 -192 -1 -86 -35 -112 -54
-152 -114 -45 -66 -52 -107 -49 -260 l3 -140 93 -3 92 -3 0 -74 0 -75 -280 0
-280 0 0 75 0 75 89 0 c60 0 92 4 97 12 10 15 9 491 0 507 -5 7 -41 11 -97 11
l-89 0 0 75 0 75 185 0 185 0 0 -95 c0 -78 3 -95 15 -95 8 0 15 7 15 16 0 38
104 154 139 154 6 0 19 4 29 9 62 31 164 39 251 19z m751 -2 c105 -23 210 -62
210 -78 0 -12 -54 -112 -64 -120 -5 -3 -27 3 -49 14 -110 58 -329 63 -414 10
-23 -14 -36 -51 -27 -75 11 -29 88 -57 214 -77 55 -9 129 -23 185 -35 83 -18
185 -88 185 -126 0 -10 5 -21 10 -24 19 -12 11 -132 -11 -180 -84 -179 -443
-219 -741 -82 -26 12 -48 27 -48 33 0 11 55 123 66 133 2 2 34 -11 71 -29 119
-57 133 -61 258 -67 123 -6 189 10 223 55 24 32 25 35 9 60 -19 32 -110 65
-227 82 -102 15 -202 41 -250 63 -40 18 -104 89 -118 128 -42 123 39 252 186
294 31 9 68 20 82 25 41 13 180 11 250 -4z m2039 3 c122 -39 206 -117 250
-231 25 -67 31 -103 31 -193 0 -104 -10 -151 -52 -242 -22 -45 -104 -128 -150
-150 -123 -58 -203 -58 -325 0 -24 11 -43 24 -43 29 0 4 -9 8 -19 8 -18 0 -19
-10 -17 -200 l1 -200 -92 0 -93 0 0 585 0 585 90 0 c79 0 90 -2 90 -17 0 -10
4 -24 9 -32 7 -11 14 -11 37 5 85 58 201 79 283 53z m1005 0 c80 -22 165 -70
209 -119 73 -82 127 -215 127 -315 l0 -45 -350 0 -350 0 0 -31 c0 -55 90 -161
148 -175 15 -4 33 -11 40 -17 7 -6 49 -8 102 -5 94 6 177 35 228 82 24 21 24
21 38 1 8 -11 21 -28 29 -38 8 -9 15 -20 15 -24 0 -3 7 -14 16 -24 15 -17 14
-20 -12 -43 -100 -89 -308 -130 -458 -91 -182 48 -295 165 -326 341 -27 152
15 289 122 396 47 47 140 98 181 98 12 0 29 5 37 10 20 13 153 13 204 -1z
m1306 -1 c29 -7 54 -17 57 -24 2 -7 -2 -28 -10 -46 -9 -18 -21 -50 -28 -71
-13 -37 -15 -38 -49 -32 -19 4 -67 9 -105 11 -135 10 -249 -60 -294 -181 -19
-50 -21 -74 -19 -199 l3 -141 93 -3 92 -3 0 -74 0 -75 -280 0 -280 0 0 75 0
75 89 0 c60 0 92 4 97 12 10 15 9 491 0 507 -5 7 -41 11 -97 11 l-89 0 0 75 0
75 185 0 185 0 0 -89 c0 -50 4 -92 9 -96 6 -3 18 12 28 32 9 21 38 58 63 83
76 77 219 108 350 78z m-9330 -482 c0 -306 -4 -477 -10 -481 -5 -3 -10 -13
-10 -21 0 -20 -56 -102 -88 -131 -64 -55 -176 -88 -279 -80 -86 6 -145 25
-213 71 -75 50 -75 54 -12 122 l48 51 43 -38 c24 -22 52 -39 62 -39 10 0 21
-4 24 -10 10 -16 128 -12 164 6 34 17 71 62 90 109 8 21 11 133 9 395 l-3 365
-92 3 c-51 1 -93 6 -94 10 0 4 -1 37 -2 75 l-2 67 183 0 182 0 0 -474z m5670
457 c1 -10 2 -144 3 -298 2 -212 6 -287 17 -311 46 -104 222 -98 303 11 61 83
76 167 76 423 l1 192 85 0 85 0 0 -415 0 -415 -85 0 -85 0 0 95 c0 78 -3 95
-15 95 -8 0 -15 -7 -15 -15 0 -20 -36 -82 -63 -108 -109 -109 -296 -116 -397
-15 -74 73 -90 163 -90 505 l0 273 90 0 c79 0 90 -2 90 -17z m-10348 -3510 l3
-1648 8100 0 8100 0 3 1648 2 1647 145 0 145 0 0 -1795 0 -1795 -8395 0 -8395
0 0 1795 0 1795 145 0 145 0 2 -1647z"/>
<path d="M9304 16340 c-12 -5 -34 -24 -48 -43 l-26 -34 2 -199 3 -199 2760 0
2760 0 3 196 c2 190 2 196 -21 230 -12 18 -34 39 -47 46 -20 10 -578 13 -2695
12 -1479 0 -2680 -4 -2691 -9z"/>
<path d="M9235 15618 c-3 -7 -4 -926 -3 -2043 l3 -2030 2760 0 2760 0 0 2040
0 2040 -2758 3 c-2201 2 -2759 0 -2762 -10z m3288 -488 c24 -11 47 -32 55 -47
14 -31 16 -86 3 -111 -5 -9 -13 -28 -19 -42 -5 -14 -24 -56 -41 -93 -17 -37
-31 -72 -31 -77 0 -5 -10 -31 -21 -57 -12 -27 -25 -57 -29 -68 -8 -21 -20 -53
-39 -97 -6 -16 -15 -38 -20 -50 -5 -13 -23 -54 -40 -91 -17 -37 -31 -72 -31
-77 0 -5 -10 -31 -21 -57 -12 -27 -25 -57 -29 -68 -8 -21 -20 -53 -39 -97 -6
-16 -15 -38 -20 -50 -5 -13 -23 -54 -40 -91 -17 -37 -31 -72 -31 -77 0 -5 -10
-31 -21 -57 -12 -27 -26 -58 -30 -70 -18 -46 -27 -69 -38 -95 -6 -16 -15 -38
-20 -50 -15 -39 -43 -102 -57 -132 -8 -16 -14 -33 -14 -38 0 -4 -9 -30 -21
-56 -12 -26 -24 -56 -29 -67 -4 -11 -12 -31 -17 -45 -6 -14 -15 -36 -20 -50
-28 -70 -61 -146 -79 -184 -8 -16 -14 -33 -14 -38 0 -4 -9 -30 -21 -56 -28
-64 -53 -124 -69 -167 -15 -40 -55 -136 -76 -179 -8 -16 -14 -33 -14 -38 0 -4
-9 -30 -21 -56 -12 -26 -26 -58 -31 -72 -6 -14 -14 -33 -19 -42 -5 -10 -9 -24
-9 -31 0 -7 -16 -28 -35 -47 -30 -29 -42 -34 -86 -34 -47 -1 -54 2 -80 34 -30
36 -39 91 -20 128 5 9 13 28 19 42 18 45 44 105 58 134 8 16 14 33 14 38 0 4
9 30 21 56 28 64 53 124 69 167 15 40 55 136 76 179 8 16 14 33 14 38 0 4 9
30 21 56 12 26 24 56 29 67 4 11 13 34 20 50 7 17 17 40 21 53 25 63 54 132
75 176 8 16 14 33 14 38 0 4 9 30 21 56 12 26 24 56 29 67 4 11 13 34 20 50
14 34 29 71 40 100 4 11 22 51 39 88 17 37 31 72 31 77 0 5 9 29 19 52 46 102
61 138 61 148 0 6 4 18 9 28 5 9 13 28 19 42 5 14 24 56 41 93 17 37 31 72 31
77 0 5 9 29 19 52 46 102 61 138 61 148 0 6 4 18 9 28 5 9 13 28 19 42 5 14
24 56 41 93 17 37 31 72 31 77 0 5 10 31 21 57 12 27 26 59 32 73 5 14 13 33
18 42 5 10 9 23 9 29 0 22 42 70 73 84 42 18 41 18 90 -5z m-1566 -710 c6 0
25 -11 41 -25 62 -52 48 -152 -26 -192 -20 -11 -54 -30 -74 -41 -21 -12 -54
-31 -73 -42 -19 -11 -51 -29 -70 -40 -19 -11 -51 -29 -70 -40 -19 -11 -51 -29
-70 -40 -19 -11 -51 -29 -70 -40 -19 -11 -50 -28 -67 -39 -18 -10 -53 -30 -78
-45 -25 -15 -53 -29 -62 -33 -10 -3 -18 -11 -18 -18 0 -7 8 -15 18 -18 9 -4
37 -18 62 -33 25 -15 60 -35 78 -45 17 -11 48 -28 67 -39 19 -11 51 -29 70
-40 19 -11 51 -29 70 -40 19 -11 51 -29 70 -40 19 -11 51 -29 70 -40 19 -11
51 -29 72 -41 99 -56 133 -93 133 -144 0 -31 -23 -73 -51 -93 -25 -18 -112
-21 -132 -4 -6 5 -29 19 -49 31 -21 12 -54 30 -73 41 -19 11 -51 29 -70 40
-19 11 -51 29 -70 40 -19 11 -51 29 -70 40 -19 11 -51 29 -70 40 -19 11 -51
29 -70 40 -19 11 -51 29 -70 40 -19 11 -51 29 -70 40 -19 11 -51 29 -70 40
-19 11 -52 30 -72 41 -106 60 -133 89 -133 144 0 23 8 49 18 61 20 25 93 75
165 113 29 15 69 38 90 49 20 12 53 31 72 42 19 11 51 29 70 40 19 11 51 29
70 40 19 11 51 29 70 40 19 11 51 29 70 40 19 11 51 29 70 40 19 11 51 29 70
40 19 11 52 30 73 42 79 45 108 58 127 53 11 -3 25 -5 32 -5z m2188 -20 c6 -4
27 -17 48 -29 20 -12 53 -30 72 -41 19 -11 51 -29 70 -40 19 -11 51 -29 70
-40 19 -11 51 -29 70 -40 19 -11 51 -29 70 -40 19 -11 51 -29 70 -40 19 -11
51 -29 70 -40 19 -11 51 -29 70 -40 19 -11 51 -29 70 -40 19 -11 51 -29 72
-41 104 -59 133 -93 133 -153 -1 -46 -32 -78 -132 -135 -21 -11 -54 -30 -73
-41 -19 -11 -51 -29 -70 -40 -19 -11 -51 -29 -70 -40 -19 -11 -51 -29 -70 -40
-19 -11 -51 -29 -70 -40 -19 -11 -51 -29 -70 -40 -19 -11 -51 -29 -70 -40 -19
-11 -51 -29 -70 -40 -19 -11 -51 -29 -70 -40 -19 -11 -52 -29 -72 -41 -21 -12
-44 -26 -50 -31 -20 -17 -107 -14 -132 4 -49 35 -66 114 -33 154 19 23 56 50
115 83 20 11 53 30 72 41 19 11 51 29 70 40 19 11 51 29 70 40 19 11 51 29 70
40 19 11 51 29 70 40 19 11 50 28 68 39 17 10 52 30 77 45 25 15 53 29 63 33
9 3 17 11 17 18 0 7 -8 15 -17 18 -10 4 -38 18 -63 33 -25 15 -60 35 -77 45
-18 11 -49 28 -68 39 -19 11 -51 29 -70 40 -19 11 -51 29 -70 40 -19 11 -51
29 -70 40 -19 11 -51 29 -70 40 -19 11 -52 30 -72 41 -105 59 -132 89 -133
142 0 43 30 93 64 108 23 9 105 2 121 -11z"/>
<path d="M6223 8992 c-15 -16 -34 -50 -40 -75 -16 -59 -17 -173 -2 -218 22
-65 84 -89 127 -49 44 41 55 80 60 197 l5 113 -33 30 c-41 39 -79 39 -117 2z"/>
<path d="M9228 8917 c-26 -13 -62 -36 -79 -53 -32 -31 -63 -90 -53 -105 8 -13
494 -12 494 1 0 22 -39 86 -66 110 -78 69 -209 89 -296 47z"/>
<path d="M11268 8917 c-26 -13 -62 -36 -79 -53 -32 -31 -63 -90 -53 -105 8
-13 494 -12 494 1 0 22 -39 86 -66 110 -78 69 -209 89 -296 47z"/>
<path d="M15348 8917 c-89 -42 -85 -33 -86 -251 0 -128 4 -202 12 -217 18 -37
111 -78 177 -79 70 0 113 17 162 66 76 76 107 204 75 303 -30 94 -53 125 -123
170 -41 26 -58 31 -109 30 -41 0 -76 -7 -108 -22z"/>
<path d="M16368 8916 c-26 -12 -62 -35 -79 -52 -32 -31 -63 -90 -53 -105 6
-11 481 -12 488 -1 12 19 -35 93 -81 126 -83 60 -190 73 -275 32z"/>
</g>
</svg>
