<?xml version="1.0" standalone="no"?>
<!DOCTYPE svg PUBLIC "-//W3C//DTD SVG 20010904//EN"
 "http://www.w3.org/TR/2001/REC-SVG-20010904/DTD/svg10.dtd">
<svg version="1.0" xmlns="http://www.w3.org/2000/svg"
 width="1200.000000pt" height="1200.000000pt" viewBox="0 0 1200.000000 1200.000000"
 preserveAspectRatio="xMidYMid meet">
<metadata>
Created by potrace 1.11, written by Peter Selinger 2001-2013
</metadata>
<g transform="translate(0.000000,1200.000000) scale(0.100000,-0.100000)"
fill="#000000" stroke="none">
<path d="M0 6000 l0 -6000 6000 0 6000 0 0 6000 0 6000 -6000 0 -6000 0 0
-6000z m10200 3300 l0 -900 -75 0 -75 0 0 825 0 825 -4050 0 -4050 0 0 -825 0
-825 -75 0 -75 0 0 900 0 900 4200 0 4200 0 0 -900z m-2837 -1011 c47 -13 106
-63 123 -106 12 -27 14 -255 14 -1283 l0 -1250 -1500 0 -1500 0 2 1263 3 1263
25 36 c25 37 63 64 108 78 42 13 2680 12 2725 -1z m-4127 -3588 c85 -39 134
-135 134 -263 0 -76 -16 -124 -51 -157 -30 -27 -82 -28 -109 -1 l-21 21 -26
-21 c-59 -46 -124 -12 -144 74 -16 72 1 145 44 187 26 26 35 30 66 25 20 -3
57 -6 83 -6 l47 1 3 -122 c3 -125 13 -154 36 -104 17 36 15 142 -3 202 -50
169 -267 157 -304 -17 -24 -110 -7 -239 37 -292 51 -60 120 -73 194 -35 44 22
46 23 58 4 9 -15 8 -23 -7 -39 -60 -68 -212 -61 -280 13 -12 13 -32 47 -45 74
-20 43 -23 66 -23 170 0 104 3 127 23 170 13 27 33 61 45 74 54 58 165 78 243
42z m2154 -21 l0 -40 -55 0 c-46 0 -60 -4 -80 -25 -14 -13 -25 -36 -25 -50 0
-25 1 -25 80 -25 l80 0 0 -40 0 -40 -80 0 -80 0 0 -130 0 -130 50 0 50 0 0
-40 0 -40 -145 0 -145 0 0 40 0 40 45 0 45 0 0 130 0 130 -45 0 -45 0 0 40 0
40 44 0 c43 0 44 0 55 43 22 88 90 136 194 137 l57 0 0 -40z m-1090 -30 l0
-60 -55 0 -55 0 0 60 0 60 55 0 55 0 0 -60z m-544 -115 c76 -23 78 -26 54 -67
-20 -35 -21 -36 -50 -21 -43 21 -130 28 -174 13 -29 -9 -36 -16 -34 -33 3 -23
7 -24 173 -61 91 -20 125 -54 125 -122 0 -39 -5 -51 -33 -79 -43 -43 -102 -59
-198 -52 -74 5 -179 39 -179 59 0 5 7 23 16 39 11 23 20 29 32 23 9 -4 42 -16
72 -27 94 -33 212 -10 194 38 -6 13 -48 27 -149 46 -73 14 -107 30 -134 65
-36 46 -21 122 32 157 58 38 169 47 253 22z m995 3 c81 -27 135 -97 146 -187
l6 -51 -177 0 c-192 0 -196 -2 -155 -54 48 -61 139 -72 216 -26 20 11 36 20
37 18 2 -2 12 -17 23 -33 l21 -31 -32 -22 c-74 -50 -182 -57 -264 -16 -133 66
-164 232 -64 343 57 64 157 89 243 59z m1020 0 c81 -27 135 -97 146 -187 l6
-51 -177 0 c-192 0 -196 -2 -155 -54 48 -61 139 -72 216 -26 20 11 36 20 37
18 2 -2 12 -17 23 -33 l21 -31 -32 -22 c-74 -50 -182 -57 -264 -16 -133 66
-164 232 -64 343 57 64 157 89 243 59z m649 2 c17 -9 17 -12 3 -48 l-15 -38
-68 0 c-54 1 -74 -3 -97 -20 -45 -33 -63 -79 -63 -161 l0 -73 50 0 50 0 0 -40
0 -40 -145 0 -145 0 0 40 0 40 45 0 c36 0 45 4 46 18 1 21 1 201 0 225 -1 13
-10 17 -46 17 l-45 0 0 40 0 40 95 0 95 0 0 -47 0 -48 22 34 c12 18 40 42 62
52 45 20 126 25 156 9z m396 -5 c76 -23 78 -26 54 -67 -20 -35 -21 -36 -50
-21 -43 21 -130 28 -174 13 -29 -9 -36 -16 -34 -33 3 -23 7 -24 173 -61 91
-20 125 -54 125 -122 0 -39 -5 -51 -33 -79 -43 -43 -102 -59 -198 -52 -74 5
-179 39 -179 59 0 5 7 23 16 39 11 23 20 29 32 23 9 -4 42 -16 72 -27 94 -33
212 -10 194 38 -6 13 -48 27 -149 46 -73 14 -107 30 -134 65 -36 46 -21 122
32 157 58 38 169 47 253 22z m1001 4 c75 -28 123 -109 123 -209 0 -164 -134
-267 -263 -201 l-37 19 0 -99 0 -99 -50 0 -50 0 0 295 0 295 50 0 c36 0 50 -4
50 -14 0 -11 8 -10 37 5 41 21 97 24 140 8z m504 -1 c81 -27 135 -97 146 -187
l6 -51 -177 0 c-192 0 -196 -2 -155 -54 48 -61 139 -72 216 -26 20 11 36 20
37 18 2 -2 12 -17 23 -33 l21 -31 -32 -22 c-74 -50 -182 -57 -264 -16 -133 66
-164 232 -64 343 57 64 157 89 243 59z m649 2 c17 -9 17 -12 3 -48 l-15 -38
-68 0 c-54 1 -74 -3 -97 -20 -45 -33 -63 -79 -63 -161 l0 -73 50 0 50 0 0 -40
0 -40 -145 0 -145 0 0 40 0 40 45 0 c36 0 45 4 46 18 1 21 1 201 0 225 -1 13
-10 17 -46 17 l-45 0 0 40 0 40 95 0 95 0 0 -47 0 -48 22 34 c12 18 40 42 62
52 45 20 126 25 156 9z m-4682 -247 c-3 -243 -3 -249 -27 -282 -48 -67 -163
-91 -247 -50 -66 31 -72 44 -40 78 l28 29 35 -24 c46 -31 94 -31 130 0 l28 24
3 196 3 196 -50 0 -51 0 0 40 0 40 95 0 96 0 -3 -247z m2842 92 c0 -142 2
-157 20 -175 40 -40 116 -16 145 47 13 28 20 71 23 160 l5 123 43 0 44 0 0
-210 0 -210 -45 0 -45 0 0 48 0 47 -20 -33 c-56 -91 -193 -96 -245 -9 -17 28
-20 55 -23 200 l-4 167 51 0 51 0 0 -155z m-5180 -1610 l0 -825 4050 0 4050 0
0 825 0 825 75 0 75 0 0 -900 0 -900 -4200 0 -4200 0 0 900 0 900 75 0 75 0 0
-825z"/>
<path d="M4637 8152 c-13 -15 -17 -39 -17 -115 l0 -97 1380 0 1380 0 0 93 c0
68 -4 99 -16 115 l-15 22 -1348 0 c-1293 0 -1349 -1 -1364 -18z"/>
<path d="M4620 6795 l0 -1015 1380 0 1380 0 0 1015 0 1015 -1380 0 -1380 0 0
-1015z m1660 765 c11 -11 20 -29 20 -41 0 -11 -122 -318 -270 -682 -269 -658
-292 -707 -336 -707 -21 0 -54 37 -54 61 0 32 548 1362 567 1377 24 18 50 15
73 -8z m-767 -372 c35 -46 17 -64 -172 -172 -94 -53 -171 -99 -171 -101 0 -2
76 -47 170 -101 101 -58 172 -105 176 -116 10 -32 -4 -64 -32 -77 -22 -10 -32
-9 -65 8 -91 48 -411 234 -424 248 -21 21 -19 60 5 81 48 41 446 261 469 259
13 -1 33 -14 44 -29z m1276 -105 c135 -77 223 -134 227 -145 15 -48 -1 -62
-210 -181 -270 -155 -258 -150 -290 -136 -14 7 -28 21 -32 31 -15 47 2 62 176
162 93 54 170 99 170 101 0 2 -72 45 -160 95 -88 50 -167 98 -175 107 -36 35
2 111 50 99 12 -3 122 -63 244 -133z"/>
<path d="M3123 4502 c-27 -17 -41 -96 -27 -149 9 -33 44 -40 66 -13 13 16 18
39 18 84 0 75 -20 102 -57 78z"/>
<path d="M4610 4452 c-19 -9 -40 -28 -47 -42 l-12 -25 116 -3 c63 -1 118 0
121 2 10 11 -31 58 -63 72 -45 18 -73 18 -115 -4z"/>
<path d="M5630 4452 c-19 -9 -40 -28 -47 -42 l-12 -25 116 -3 c63 -1 118 0
121 2 10 11 -31 58 -63 72 -45 18 -73 18 -115 -4z"/>
<path d="M7673 4455 l-33 -14 0 -111 0 -111 37 -15 c23 -10 51 -14 73 -10 105
16 134 191 41 253 -39 26 -72 28 -118 8z"/>
<path d="M8180 4452 c-19 -9 -40 -28 -47 -42 l-12 -25 116 -3 c63 -1 118 0
121 2 10 11 -31 58 -63 72 -45 18 -73 18 -115 -4z"/>
</g>
</svg>
